<svg id="visual" viewBox="0 0 1920 200" width="1920" height="200" xmlns="http://www.w3.org/2000/svg" xmlns:xlink="http://www.w3.org/1999/xlink" version="1.1"><path d="M0 93L12.8 95.3C25.7 97.7 51.3 102.3 77 111C102.7 119.7 128.3 132.3 153.8 133C179.3 133.7 204.7 122.3 230.2 114C255.7 105.7 281.3 100.3 307 94C332.7 87.7 358.3 80.3 384 89.5C409.7 98.7 435.3 124.3 461 131.2C486.7 138 512.3 126 537.8 120.3C563.3 114.7 588.7 115.3 614.2 107.7C639.7 100 665.3 84 691 79.3C716.7 74.7 742.3 81.3 768 87.7C793.7 94 819.3 100 845 96.2C870.7 92.3 896.3 78.7 921.8 81.3C947.3 84 972.7 103 998.2 112.8C1023.7 122.7 1049.3 123.3 1075 125.2C1100.7 127 1126.3 130 1152 121.5C1177.7 113 1203.3 93 1229 83.3C1254.7 73.7 1280.3 74.3 1305.8 81.7C1331.3 89 1356.7 103 1382.2 106.8C1407.7 110.7 1433.3 104.3 1459 102.2C1484.7 100 1510.3 102 1536 108.2C1561.7 114.3 1587.3 124.7 1613 132.8C1638.7 141 1664.3 147 1689.8 144C1715.3 141 1740.7 129 1766.2 118.7C1791.7 108.3 1817.3 99.7 1843 104.5C1868.7 109.3 1894.3 127.7 1907.2 136.8L1920 146L1920 201L1907.2 201C1894.3 201 1868.7 201 1843 201C1817.3 201 1791.7 201 1766.2 201C1740.7 201 1715.3 201 1689.8 201C1664.3 201 1638.7 201 1613 201C1587.3 201 1561.7 201 1536 201C1510.3 201 1484.7 201 1459 201C1433.3 201 1407.7 201 1382.2 201C1356.7 201 1331.3 201 1305.8 201C1280.3 201 1254.7 201 1229 201C1203.3 201 1177.7 201 1152 201C1126.3 201 1100.7 201 1075 201C1049.3 201 1023.7 201 998.2 201C972.7 201 947.3 201 921.8 201C896.3 201 870.7 201 845 201C819.3 201 793.7 201 768 201C742.3 201 716.7 201 691 201C665.3 201 639.7 201 614.2 201C588.7 201 563.3 201 537.8 201C512.3 201 486.7 201 461 201C435.3 201 409.7 201 384 201C358.3 201 332.7 201 307 201C281.3 201 255.7 201 230.2 201C204.7 201 179.3 201 153.8 201C128.3 201 102.7 201 77 201C51.3 201 25.7 201 12.8 201L0 201Z" fill="#2B3467" stroke-linecap="round" stroke-linejoin="miter"></path></svg>